<svg width="85" height="85" viewBox="0 0 85 85" fill="none" xmlns="http://www.w3.org/2000/svg">
<g clip-path="url(#clip0)">
<path d="M79.0369 68.7154C78.3956 73.1329 75.191 76.9555 70.7037 78.6543C68.5054 79.5028 66.125 79.7582 63.7437 79.5028C61.4548 79.2483 59.165 78.5686 56.7846 77.2958C53.4876 75.5953 50.1905 72.9631 46.3446 69.0556C52.3889 62.1757 56.0509 55.8897 57.425 50.2851C58.0663 47.6513 58.1578 45.2728 57.8833 43.0641C57.5174 40.9411 56.6931 38.9869 55.4105 37.2881C52.5718 33.4663 47.8101 31.2576 42.4986 31.2576C37.1871 31.2576 32.4255 33.5511 29.5867 37.2881C28.3042 38.9869 27.4808 40.9411 27.114 43.0641C26.748 45.2728 26.8395 47.7361 27.5723 50.2851C28.9454 55.8897 32.6999 62.2605 38.6527 69.1396C34.8982 73.048 31.5097 75.681 28.2127 77.3798C25.8323 78.6543 23.5425 79.334 21.2536 79.5877C18.7808 79.8431 16.3995 79.5028 14.2936 78.7391C9.80632 77.0404 6.60167 73.2169 5.96038 68.8002C5.68593 66.6772 5.86889 64.5541 6.78464 62.1757C7.05908 61.3255 7.51741 60.4778 7.97483 59.4578C8.61612 58.0993 9.3489 56.6543 10.0808 55.2101L10.1732 55.0412C16.491 42.3844 23.268 29.4739 30.3195 16.9037L30.594 16.3929C31.3267 15.1201 32.0586 13.7616 32.7923 12.4871C33.5242 11.1277 34.3484 9.85321 35.3557 8.74841C37.2786 6.70938 39.8429 5.60543 42.6816 5.60543C45.5203 5.60543 48.0846 6.70938 50.0075 8.74841C51.0148 9.85321 51.839 11.1277 52.5718 12.4871C53.3046 13.7616 54.0365 15.1201 54.7692 16.3929L55.0446 16.9037C62.0037 29.5588 68.7808 42.4693 75.0995 55.126V55.2101C75.8323 56.5694 76.4726 58.0993 77.2054 59.4578C77.6637 60.4778 78.1212 61.3255 78.3956 62.1757C79.1284 64.3836 79.4028 66.5083 79.0369 68.7154ZM42.4986 64.723C37.554 58.9479 34.3484 53.5113 33.2497 48.9258C32.7923 46.9716 32.6999 45.2728 32.9753 43.7438C33.1582 42.3844 33.708 41.1948 34.4399 40.1748C36.1799 37.8838 39.1101 36.437 42.4986 36.437C45.8872 36.437 48.9088 37.7972 50.5574 40.1748C51.2892 41.1948 51.839 42.3844 52.022 43.7438C52.2965 45.2728 52.205 47.0565 51.7476 48.9258C50.6488 53.4273 47.4433 58.863 42.4986 64.723ZM83.7986 60.3064C83.3412 59.2873 82.8828 58.1833 82.4254 57.2491C81.6926 55.7209 80.9599 54.2758 80.3186 52.9165L80.2271 52.8325C73.9093 40.0908 67.1322 27.1803 59.9892 14.4412L59.7148 13.9304C58.982 12.6559 58.2492 11.2966 57.5174 9.93806C56.6007 8.40815 55.685 6.79593 54.2203 5.26602C51.2892 1.86848 47.0774 0 42.5901 0C38.0114 0 33.891 1.86848 30.8684 5.09716C29.4953 6.62538 28.488 8.23929 27.5723 9.76921C26.8395 11.1277 26.1067 12.4871 25.374 13.7616L25.0995 14.2698C18.0489 27.0106 11.1804 39.922 4.86167 52.6627L4.77018 52.8325C4.12889 54.191 3.39611 55.6343 2.66333 57.1642C2.20592 58.0993 1.74759 59.1184 1.29017 60.2224C0.0990673 63.3645 -0.266864 66.3378 0.19055 69.395C1.19869 75.7659 5.77741 81.1176 12.0961 83.4952C14.4765 84.4303 16.9493 84.8545 19.5136 84.8545C20.2463 84.8545 21.1621 84.7697 21.8949 84.684C24.9165 84.3437 28.0297 83.4112 31.0514 81.7964C34.8068 79.8431 38.3782 77.0404 42.4072 72.9631C46.4361 77.0404 50.099 79.8431 53.762 81.7964C56.7846 83.4112 59.8978 84.3437 62.9194 84.684C63.6522 84.7697 64.568 84.8545 65.3007 84.8545C67.865 84.8545 70.4284 84.4303 72.7182 83.4952C79.1284 81.1176 83.6156 75.681 84.6228 69.395C85.3556 66.4218 84.9888 63.4502 83.7986 60.3064Z" fill="#E0565B"/>
</g>
<defs>
<clipPath id="clip0">
<rect width="85" height="85" fill="white"/>
</clipPath>
</defs>
</svg>
