<svg width="129" height="41" viewBox="0 0 129 41" fill="none" xmlns="http://www.w3.org/2000/svg">
<path d="M67.9875 10.3013C67.9875 11.7788 66.8189 12.969 65.3681 12.969C63.9173 12.969 62.7487 11.7788 62.7487 10.3013C62.7487 8.82382 63.877 7.63363 65.3681 7.63363C66.8592 7.67467 67.9875 8.86487 67.9875 10.3013ZM57.1874 15.6777C57.1874 15.9239 57.1874 16.3343 57.1874 16.3343C57.1874 16.3343 55.9382 14.6927 53.2784 14.6927C48.8859 14.6927 45.4605 18.0991 45.4605 22.8188C45.4605 27.4975 48.8456 30.9449 53.2784 30.9449C55.9785 30.9449 57.1874 29.2623 57.1874 29.2623V29.96C57.1874 30.2883 57.4292 30.5345 57.7516 30.5345H61.0158V15.1031C61.0158 15.1031 58.0337 15.1031 57.7516 15.1031C57.4292 15.1031 57.1874 15.3904 57.1874 15.6777ZM57.1874 25.5686C56.583 26.4715 55.374 27.2513 53.9232 27.2513C51.3441 27.2513 49.3695 25.6096 49.3695 22.8188C49.3695 20.028 51.3441 18.3864 53.9232 18.3864C55.3337 18.3864 56.6233 19.2072 57.1874 20.0691V25.5686ZM63.4338 15.1031H67.3025V30.5345H63.4338V15.1031ZM121.222 14.6927C118.563 14.6927 117.313 16.3343 117.313 16.3343V7.67467H113.445V30.5345C113.445 30.5345 116.427 30.5345 116.709 30.5345C117.031 30.5345 117.273 30.2472 117.273 29.96V29.2623C117.273 29.2623 118.522 30.9449 121.182 30.9449C125.575 30.9449 129 27.4975 129 22.8188C129 18.1401 125.575 14.6927 121.222 14.6927ZM120.578 27.2102C119.086 27.2102 117.918 26.4304 117.313 25.5275V20.028C117.918 19.2072 119.207 18.3453 120.578 18.3453C123.157 18.3453 125.131 19.987 125.131 22.7778C125.131 25.5686 123.157 27.2102 120.578 27.2102ZM111.43 21.3824V30.5756H107.561V21.8338C107.561 19.2893 106.755 18.2633 104.579 18.2633C103.41 18.2633 102.201 18.8789 101.436 19.7818V30.5345H97.5669V15.1031H100.63C100.952 15.1031 101.194 15.3904 101.194 15.6777V16.3343C102.322 15.1441 103.813 14.6927 105.304 14.6927C106.997 14.6927 108.407 15.1852 109.536 16.1702C110.906 17.3193 111.43 18.7968 111.43 21.3824ZM88.1773 14.6927C85.5175 14.6927 84.2683 16.3343 84.2683 16.3343V7.67467H80.3996V30.5345C80.3996 30.5345 83.3817 30.5345 83.6638 30.5345C83.9862 30.5345 84.228 30.2472 84.228 29.96V29.2623C84.228 29.2623 85.4772 30.9449 88.137 30.9449C92.5295 30.9449 95.9549 27.4975 95.9549 22.8188C95.9952 18.1401 92.5698 14.6927 88.1773 14.6927ZM87.5325 27.2102C86.0414 27.2102 84.8728 26.4304 84.2683 25.5275V20.028C84.8728 19.2072 86.1623 18.3453 87.5325 18.3453C90.1116 18.3453 92.0863 19.987 92.0863 22.7778C92.0863 25.5686 90.1116 27.2102 87.5325 27.2102ZM77.0548 14.6927C78.2234 14.6927 78.8279 14.8979 78.8279 14.8979V18.5506C78.8279 18.5506 75.604 17.4424 73.5891 19.7818V30.5756H69.7204V15.1031C69.7204 15.1031 72.7025 15.1031 72.9846 15.1031C73.307 15.1031 73.5488 15.3904 73.5488 15.6777V16.3343C74.2742 15.4725 75.8458 14.6927 77.0548 14.6927ZM36.8768 29.1391C36.6753 28.6466 36.4738 28.1131 36.2723 27.6617C35.9499 26.9229 35.6275 26.2252 35.3455 25.5686L35.3052 25.5275C32.5245 19.3714 29.5424 13.1331 26.3991 6.97698L26.2782 6.73073C25.9558 6.11512 25.6334 5.45846 25.311 4.8018C24.9081 4.06306 24.5051 3.28328 23.8603 2.54454C22.5707 0.902903 20.717 0 18.7423 0C16.7274 0 14.9139 0.902903 13.5841 2.46246C12.9796 3.2012 12.5363 3.98098 12.1333 4.71972C11.8109 5.37638 11.4885 6.03303 11.1661 6.64865L11.0452 6.89489C7.94223 13.0511 4.91982 19.2893 2.1392 25.4454L2.0989 25.5275C1.81681 26.1842 1.49442 26.8819 1.17203 27.6206C0.970531 28.0721 0.769037 28.5646 0.567542 29.0981C0.0436571 30.6166 -0.117538 32.0531 0.083956 33.5305C0.527243 36.6086 2.54219 39.1942 5.32281 40.3433C6.37058 40.7948 7.45865 41 8.58701 41C8.90941 41 9.31239 40.959 9.63479 40.9179C10.9646 40.7538 12.3348 40.3023 13.6647 39.5225C15.3169 38.5786 16.8886 37.2242 18.6617 35.2543C20.4349 37.2242 22.0468 38.5786 23.6588 39.5225C24.9887 40.3023 26.3588 40.7538 27.6887 40.9179C28.0111 40.959 28.4141 41 28.7364 41C29.8648 41 30.9932 40.7948 32.0007 40.3433C34.8216 39.1942 36.7962 36.5676 37.2395 33.5305C37.5619 32.0941 37.4007 30.6577 36.8768 29.1391ZM18.702 31.2733C16.5259 28.4825 15.1154 25.8559 14.6318 23.6396C14.4304 22.6957 14.3901 21.8749 14.5109 21.1361C14.5915 20.4795 14.8333 19.9049 15.1557 19.4124C15.9214 18.3043 17.211 17.6066 18.702 17.6066C20.1931 17.6066 21.5229 18.2633 22.2483 19.4124C22.5707 19.9049 22.8125 20.4795 22.8931 21.1361C23.014 21.8749 22.9737 22.7367 22.7722 23.6396C22.2886 25.8148 20.8782 28.4414 18.702 31.2733ZM34.7813 33.2022C34.4992 35.3363 33.0887 37.1832 31.1141 38.004C30.1469 38.4144 29.0991 38.5375 28.0514 38.4144C27.0439 38.2913 26.0364 37.963 24.9887 37.3473C23.5379 36.5265 22.0871 35.2543 20.3946 33.3664C23.0543 30.042 24.6663 27.005 25.2707 24.2963C25.5528 23.024 25.5931 21.8749 25.4722 20.8078C25.311 19.7818 24.9484 18.8378 24.3842 18.017C23.1349 16.1702 21.0394 15.1031 18.702 15.1031C16.3647 15.1031 14.2692 16.2112 13.0199 18.017C12.4557 18.8378 12.093 19.7818 11.9318 20.8078C11.7706 21.8749 11.8109 23.0651 12.1333 24.2963C12.7378 27.005 14.3901 30.0831 17.0095 33.4074C15.3572 35.2953 13.8662 36.5676 12.4154 37.3884C11.3676 38.004 10.3602 38.3323 9.35269 38.4555C8.26462 38.5786 7.21685 38.4144 6.28998 38.045C4.31534 37.2242 2.90488 35.3774 2.62278 33.2432C2.50189 32.2172 2.58249 31.1912 2.98547 30.042C3.10637 29.6316 3.30786 29.2212 3.50936 28.7287C3.79145 28.0721 4.11384 27.3744 4.43623 26.6767L4.47653 26.5946C7.25715 20.4795 10.2393 14.2412 13.3423 8.16717L13.4632 7.92092C13.7856 7.30531 14.108 6.64865 14.4304 6.03303C14.7527 5.37638 15.1154 4.76076 15.5587 4.22723C16.405 3.24224 17.5334 2.70871 18.7826 2.70871C20.0319 2.70871 21.1603 3.24224 22.0065 4.22723C22.4498 4.76076 22.8125 5.37638 23.1349 6.03303C23.4573 6.64865 23.7797 7.30531 24.1021 7.92092L24.223 8.16717C27.2857 14.2823 30.2678 20.5205 33.0484 26.6356V26.6767C33.3708 27.3333 33.6529 28.0721 33.9753 28.7287C34.1768 29.2212 34.3783 29.6316 34.4992 30.042C34.8216 31.1091 34.9425 32.1351 34.7813 33.2022Z" fill="#FF5A5F"/>
</svg>
