<svg width="139" height="43" viewBox="0 0 139 43" fill="none" xmlns="http://www.w3.org/2000/svg">
<path d="M73.2579 10.8038C73.2579 12.3534 71.9986 13.6016 70.4354 13.6016C68.8722 13.6016 67.6129 12.3534 67.6129 10.8038C67.6129 9.25425 68.8288 8.00601 70.4354 8.00601C72.042 8.04905 73.2579 9.2973 73.2579 10.8038ZM61.6206 16.4424C61.6206 16.7007 61.6206 17.1311 61.6206 17.1311C61.6206 17.1311 60.2745 15.4094 57.4086 15.4094C52.6755 15.4094 48.9845 18.982 48.9845 23.9319C48.9845 28.8388 52.632 32.4545 57.4086 32.4545C60.3179 32.4545 61.6206 30.6897 61.6206 30.6897V31.4214C61.6206 31.7658 61.8811 32.024 62.2285 32.024H65.7457V15.8398C65.7457 15.8398 62.5325 15.8398 62.2285 15.8398C61.8811 15.8398 61.6206 16.1411 61.6206 16.4424ZM61.6206 26.8158C60.9692 27.7628 59.6665 28.5806 58.1033 28.5806C55.3243 28.5806 53.1965 26.8589 53.1965 23.9319C53.1965 21.005 55.3243 19.2833 58.1033 19.2833C59.6231 19.2833 61.0126 20.1441 61.6206 21.048V26.8158ZM68.3511 15.8398H72.5197V32.024H68.3511V15.8398ZM130.619 15.4094C127.753 15.4094 126.407 17.1311 126.407 17.1311V8.04905H122.239V32.024C122.239 32.024 125.452 32.024 125.756 32.024C126.103 32.024 126.364 31.7227 126.364 31.4214V30.6897C126.364 30.6897 127.71 32.4545 130.576 32.4545C135.309 32.4545 139 28.8388 139 23.9319C139 19.025 135.309 15.4094 130.619 15.4094ZM129.925 28.5375C128.318 28.5375 127.059 27.7197 126.407 26.7728V21.005C127.059 20.1441 128.448 19.2402 129.925 19.2402C132.704 19.2402 134.831 20.962 134.831 23.8889C134.831 26.8158 132.704 28.5375 129.925 28.5375ZM120.068 22.4254V32.0671H115.899V22.8989C115.899 20.2302 115.031 19.1542 112.686 19.1542C111.427 19.1542 110.124 19.7998 109.299 20.7467V32.024H105.13V15.8398H108.43C108.778 15.8398 109.038 16.1411 109.038 16.4424V17.1311C110.254 15.8829 111.861 15.4094 113.467 15.4094C115.291 15.4094 116.811 15.9259 118.027 16.959C119.503 18.1642 120.068 19.7137 120.068 22.4254ZM95.0127 15.4094C92.1468 15.4094 90.8007 17.1311 90.8007 17.1311V8.04905H86.6321V32.024C86.6321 32.024 89.8454 32.024 90.1494 32.024C90.4967 32.024 90.7573 31.7227 90.7573 31.4214V30.6897C90.7573 30.6897 92.1034 32.4545 94.9693 32.4545C99.7024 32.4545 103.393 28.8388 103.393 23.9319C103.437 19.025 99.7458 15.4094 95.0127 15.4094ZM94.3179 28.5375C92.7113 28.5375 91.452 27.7197 90.8007 26.7728V21.005C91.452 20.1441 92.8416 19.2402 94.3179 19.2402C97.097 19.2402 99.2247 20.962 99.2247 23.8889C99.2247 26.8158 97.097 28.5375 94.3179 28.5375ZM83.028 15.4094C84.2873 15.4094 84.9386 15.6246 84.9386 15.6246V19.4555C84.9386 19.4555 81.4648 18.2933 79.2937 20.7467V32.0671H75.1251V15.8398C75.1251 15.8398 78.3383 15.8398 78.6423 15.8398C78.9897 15.8398 79.2502 16.1411 79.2502 16.4424V17.1311C80.0318 16.2272 81.7253 15.4094 83.028 15.4094ZM39.7355 30.5606C39.5184 30.044 39.3013 29.4845 39.0841 29.011C38.7368 28.2362 38.3894 27.5045 38.0854 26.8158L38.042 26.7728C35.0458 20.3163 31.8325 13.7738 28.4456 7.31732L28.3153 7.05906C27.9679 6.41341 27.6205 5.72472 27.2731 5.03604C26.8389 4.26126 26.4047 3.44344 25.7099 2.66867C24.3204 0.946947 22.3229 0 20.1952 0C18.0241 0 16.0701 0.946947 14.6371 2.58258C13.9858 3.35736 13.5081 4.17518 13.0739 4.94995C12.7265 5.63864 12.3791 6.32733 12.0317 6.97297L11.9015 7.23123C8.55791 13.6877 5.3012 20.2302 2.30503 26.6867L2.2616 26.7728C1.95764 27.4615 1.61026 28.1932 1.26288 28.968C1.04577 29.4414 0.828652 29.958 0.611538 30.5175C0.0470414 32.1101 -0.12665 33.6166 0.0904642 35.1662C0.568115 38.3944 2.73925 41.1061 5.73543 42.3113C6.86442 42.7848 8.03684 43 9.25268 43C9.60006 43 10.0343 42.957 10.3817 42.9139C11.8146 42.7417 13.291 42.2683 14.7239 41.4505C16.5043 40.4605 18.1978 39.04 20.1084 36.974C22.019 39.04 23.7559 40.4605 25.4928 41.4505C26.9258 42.2683 28.4021 42.7417 29.8351 42.9139C30.1825 42.957 30.6167 43 30.9641 43C32.1799 43 33.3958 42.7848 34.4813 42.3113C37.5209 41.1061 39.6486 38.3513 40.1263 35.1662C40.4737 33.6597 40.3 32.1532 39.7355 30.5606ZM20.1518 32.7988C17.807 29.8719 16.2872 27.1171 15.7661 24.7928C15.549 23.8028 15.5056 22.9419 15.6358 22.1672C15.7227 21.4785 15.9832 20.8759 16.3306 20.3594C17.1556 19.1972 18.5452 18.4655 20.1518 18.4655C21.7584 18.4655 23.1914 19.1542 23.973 20.3594C24.3204 20.8759 24.5809 21.4785 24.6678 22.1672C24.798 22.9419 24.7546 23.8458 24.5375 24.7928C24.0164 27.0741 22.4966 29.8288 20.1518 32.7988ZM37.4775 34.8218C37.1735 37.0601 35.6537 38.997 33.526 39.8579C32.4839 40.2883 31.3549 40.4174 30.2259 40.2883C29.1403 40.1592 28.0547 39.8148 26.9258 39.1692C25.3625 38.3083 23.7993 36.974 21.9756 34.994C24.8415 31.5075 26.5784 28.3223 27.2297 25.4815C27.5337 24.1471 27.5771 22.9419 27.4468 21.8228C27.2731 20.7467 26.8823 19.7568 26.2744 18.8959C24.9283 16.959 22.6703 15.8398 20.1518 15.8398C17.6333 15.8398 15.3753 17.002 14.0292 18.8959C13.4213 19.7568 13.0305 20.7467 12.8568 21.8228C12.6831 22.9419 12.7265 24.1902 13.0739 25.4815C13.7252 28.3223 15.5056 31.5506 18.328 35.037C16.5477 37.017 14.9411 38.3513 13.3778 39.2122C12.2488 39.8579 11.1633 40.2022 10.0777 40.3313C8.90529 40.4605 7.7763 40.2883 6.77758 39.9009C4.64986 39.04 3.13006 37.1031 2.8261 34.8649C2.69583 33.7888 2.78268 32.7127 3.21691 31.5075C3.34717 31.0771 3.56429 30.6466 3.7814 30.1301C4.08536 29.4414 4.43274 28.7097 4.78013 27.978L4.82355 27.8919C7.81972 21.4785 11.033 14.9359 14.3766 8.56557L14.5068 8.30731C14.8542 7.66166 15.2016 6.97297 15.549 6.32733C15.8964 5.63864 16.2872 4.99299 16.7648 4.43343C17.6767 3.4004 18.8925 2.84084 20.2386 2.84084C21.5848 2.84084 22.8006 3.4004 23.7125 4.43343C24.1901 4.99299 24.5809 5.63864 24.9283 6.32733C25.2757 6.97297 25.6231 7.66166 25.9705 8.30731L26.1007 8.56557C29.4009 14.979 32.6141 21.5215 35.6103 27.9349V27.978C35.9577 28.6667 36.2617 29.4414 36.609 30.1301C36.8262 30.6466 37.0433 31.0771 37.1735 31.5075C37.5209 32.6266 37.6512 33.7027 37.4775 34.8218Z" fill="white"/>
</svg>
