<svg width="24" height="24" viewBox="0 0 24 24" fill="none" xmlns="http://www.w3.org/2000/svg">
<path d="M17.0208 15.0833H16.0004L15.6387 14.7346C16.9046 13.2621 17.6667 11.3504 17.6667 9.27083C17.6667 4.63375 13.9079 0.875 9.27083 0.875C4.63375 0.875 0.875 4.63375 0.875 9.27083C0.875 13.9079 4.63375 17.6667 9.27083 17.6667C11.3504 17.6667 13.2621 16.9046 14.7346 15.6388L15.0833 16.0004V17.0208L21.5417 23.4662L23.4662 21.5417L17.0208 15.0833ZM9.27083 15.0833C6.05458 15.0833 3.45833 12.4871 3.45833 9.27083C3.45833 6.05458 6.05458 3.45833 9.27083 3.45833C12.4871 3.45833 15.0833 6.05458 15.0833 9.27083C15.0833 12.4871 12.4871 15.0833 9.27083 15.0833Z" fill="#484848"/>
</svg>
