<svg width="36" height="36" viewBox="0 0 36 36" fill="none" xmlns="http://www.w3.org/2000/svg">
<g clip-path="url(#clip0)">
<path d="M17.5532 0C7.86031 0 0 7.86031 0 17.5532C0 27.2461 7.86031 35.1064 17.5532 35.1064C27.2461 35.1064 35.1064 27.2461 35.1064 17.5532C35.1064 7.86031 27.2461 0 17.5532 0ZM25.5678 13.6861C25.5756 13.8589 25.5793 14.0324 25.5793 14.2068C25.5793 19.5307 21.5269 25.6698 14.116 25.6701H14.1163H14.116C11.8407 25.6701 9.72341 25.0032 7.9404 23.8603C8.25565 23.8975 8.57652 23.916 8.90141 23.916C10.7891 23.916 12.5264 23.2721 13.9055 22.1914C12.1417 22.1587 10.6547 20.9939 10.1415 19.393C10.3871 19.4401 10.6397 19.4658 10.8987 19.4658C11.2664 19.4658 11.6227 19.4163 11.9612 19.3239C10.1177 18.9548 8.72892 17.3255 8.72892 15.3746C8.72892 15.3564 8.72892 15.34 8.72946 15.3232C9.27237 15.625 9.89322 15.8066 10.5543 15.827C9.47245 15.1051 8.76133 13.8712 8.76133 12.4733C8.76133 11.7352 8.96087 11.0436 9.30692 10.4482C11.2938 12.8861 14.263 14.4894 17.6116 14.6578C17.5425 14.3627 17.5069 14.0552 17.5069 13.7391C17.5069 11.515 19.3113 9.71056 21.5362 9.71056C22.6952 9.71056 23.7419 10.2004 24.4771 10.9836C25.395 10.8025 26.2569 10.4672 27.0355 10.0057C26.7342 10.9461 26.0957 11.7352 25.2638 12.2341C26.0788 12.1367 26.8556 11.9205 27.5774 11.5996C27.0382 12.4077 26.3544 13.1175 25.5678 13.6861Z" fill="white"/>
</g>
<defs>
<clipPath id="clip0">
<rect width="35.1064" height="35.1064" fill="white"/>
</clipPath>
</defs>
</svg>
