<svg width="36" height="36" viewBox="0 0 36 36" fill="none" xmlns="http://www.w3.org/2000/svg">
<g clip-path="url(#clip0)">
<path d="M20.9129 18C20.9129 19.8556 19.4087 21.3598 17.5532 21.3598C15.6976 21.3598 14.1934 19.8556 14.1934 18C14.1934 16.1444 15.6976 14.6402 17.5532 14.6402C19.4087 14.6402 20.9129 16.1444 20.9129 18Z" fill="white"/>
<path d="M25.4106 12.0555C25.2491 11.6179 24.9914 11.2217 24.6566 10.8966C24.3314 10.5618 23.9356 10.3041 23.4977 10.1426C23.1425 10.0047 22.609 9.84047 21.6263 9.79574C20.5632 9.74726 20.2445 9.73682 17.5532 9.73682C14.8617 9.73682 14.5429 9.74699 13.4802 9.79547C12.4975 9.84047 11.9636 10.0047 11.6088 10.1426C11.1708 10.3041 10.7747 10.5618 10.4498 10.8966C10.115 11.2217 9.85735 11.6176 9.69557 12.0555C9.55764 12.4107 9.39345 12.9445 9.34872 13.9272C9.30024 14.99 9.28979 15.3087 9.28979 18.0002C9.28979 20.6915 9.30024 21.0102 9.34872 22.0733C9.39345 23.056 9.55764 23.5895 9.69557 23.9447C9.85735 24.3826 10.1147 24.7785 10.4495 25.1036C10.7747 25.4384 11.1706 25.6961 11.6085 25.8576C11.9636 25.9958 12.4975 26.16 13.4802 26.2047C14.5429 26.2532 14.8614 26.2634 17.5529 26.2634C20.2447 26.2634 20.5635 26.2532 21.626 26.2047C22.6087 26.16 23.1425 25.9958 23.4977 25.8576C24.3767 25.5185 25.0715 24.8237 25.4106 23.9447C25.5485 23.5895 25.7127 23.056 25.7577 22.0733C25.8062 21.0102 25.8164 20.6915 25.8164 18.0002C25.8164 15.3087 25.8062 14.99 25.7577 13.9272C25.713 12.9445 25.5488 12.4107 25.4106 12.0555ZM17.5532 23.1757C14.6945 23.1757 12.3772 20.8586 12.3772 18C12.3772 15.1413 14.6945 12.8242 17.5532 12.8242C20.4116 12.8242 22.729 15.1413 22.729 18C22.729 20.8586 20.4116 23.1757 17.5532 23.1757ZM22.9336 13.8291C22.2656 13.8291 21.724 13.2876 21.724 12.6196C21.724 11.9516 22.2656 11.41 22.9336 11.41C23.6016 11.41 24.1432 11.9516 24.1432 12.6196C24.1429 13.2876 23.6016 13.8291 22.9336 13.8291Z" fill="white"/>
<path d="M17.5532 0.446777C7.86031 0.446777 0 8.30709 0 18C0 27.6928 7.86031 35.5532 17.5532 35.5532C27.2461 35.5532 35.1064 27.6928 35.1064 18C35.1064 8.30709 27.2461 0.446777 17.5532 0.446777ZM27.5718 22.1555C27.523 23.2285 27.3524 23.961 27.1033 24.6022C26.5797 25.9562 25.5094 27.0265 24.1555 27.5501C23.5145 27.7992 22.7817 27.9695 21.709 28.0185C20.6342 28.0676 20.2908 28.0793 17.5535 28.0793C14.8159 28.0793 14.4728 28.0676 13.3976 28.0185C12.3249 27.9695 11.5921 27.7992 10.9512 27.5501C10.2784 27.297 9.66931 26.9003 9.16577 26.3874C8.65312 25.8841 8.25645 25.2748 8.00334 24.6022C7.75425 23.9613 7.58363 23.2285 7.53489 22.1558C7.48534 21.0807 7.47382 20.7373 7.47382 18C7.47382 15.2626 7.48534 14.9193 7.53462 13.8444C7.58337 12.7715 7.75371 12.0389 8.0028 11.3977C8.25591 10.7252 8.65285 10.1158 9.16577 9.61255C9.66904 9.09963 10.2784 8.70296 10.9509 8.44985C11.5921 8.20076 12.3247 8.03041 13.3976 7.9814C14.4725 7.93238 14.8159 7.9206 17.5532 7.9206C20.2905 7.9206 20.6339 7.93238 21.7087 7.98167C22.7817 8.03041 23.5142 8.20076 24.1555 8.44958C24.828 8.70269 25.4373 9.09963 25.9409 9.61255C26.4535 10.1161 26.8505 10.7252 27.1033 11.3977C27.3527 12.0389 27.523 12.7715 27.572 13.8444C27.621 14.9193 27.6326 15.2626 27.6326 18C27.6326 20.7373 27.621 21.0807 27.5718 22.1555Z" fill="white"/>
</g>
<defs>
<clipPath id="clip0">
<rect y="0.446777" width="35.1064" height="35.1064" fill="white"/>
</clipPath>
</defs>
</svg>
