<svg width="36" height="36" viewBox="0 0 36 36" fill="none" xmlns="http://www.w3.org/2000/svg">
<g clip-path="url(#clip0)">
<path d="M20.3834 35.7715C20.2372 35.7954 20.0904 35.8173 19.9431 35.8374C20.0904 35.8173 20.2372 35.7954 20.3834 35.7715Z" fill="white"/>
<path d="M20.7346 35.7115C20.6647 35.7244 20.5948 35.7362 20.5249 35.7482C20.5948 35.7362 20.6647 35.7244 20.7346 35.7115Z" fill="white"/>
<path d="M19.551 35.8862C19.3799 35.9055 19.2077 35.9226 19.0349 35.9371C19.2077 35.9226 19.3799 35.9055 19.551 35.8862Z" fill="white"/>
<path d="M19.8882 35.8449C19.806 35.8559 19.7232 35.8661 19.6407 35.8757C19.7232 35.8661 19.806 35.8559 19.8882 35.8449Z" fill="white"/>
<path d="M21.2124 35.6167C21.1508 35.6298 21.089 35.6429 21.0271 35.6555C21.089 35.6429 21.1508 35.6298 21.2124 35.6167Z" fill="white"/>
<path d="M22.3985 35.3221C22.3487 35.3363 22.2988 35.3497 22.249 35.3636C22.2988 35.3497 22.3487 35.3363 22.3985 35.3221Z" fill="white"/>
<path d="M22.0398 35.4201C21.9857 35.4343 21.9313 35.4488 21.877 35.4624C21.9313 35.4488 21.9857 35.4346 22.0398 35.4201Z" fill="white"/>
<path d="M21.5705 35.5374C21.5132 35.5508 21.4553 35.5634 21.3975 35.5763C21.4553 35.5634 21.5132 35.5508 21.5705 35.5374Z" fill="white"/>
<path d="M19.0293 35.9376C18.9369 35.9454 18.8445 35.9524 18.7518 35.9585C18.8445 35.9524 18.9369 35.9454 19.0293 35.9376Z" fill="white"/>
<path d="M35.1064 18.4468C35.1064 8.75393 27.2461 0.893616 17.5532 0.893616C7.86031 0.893616 0 8.75393 0 18.4468C0 28.1397 7.86031 36 17.5532 36C17.6563 36 17.7589 35.9979 17.8617 35.996V22.3316H14.0906V17.9366H17.8617V14.7024C17.8617 10.9516 20.1515 8.91008 23.4974 8.91008C25.0996 8.91008 26.4768 9.02954 26.8783 9.08284V13.003H24.5711C22.7509 13.003 22.3984 13.8681 22.3984 15.1374V17.9366H26.7508L26.1835 22.3316H22.3984V35.3218C29.7354 33.2185 35.1064 26.459 35.1064 18.4468Z" fill="white"/>
<path d="M18.713 35.9609C18.5303 35.9727 18.3468 35.982 18.1628 35.9882C18.3468 35.982 18.5303 35.9727 18.713 35.9609Z" fill="white"/>
<path d="M18.1535 35.9888C18.0565 35.992 17.9593 35.9944 17.8621 35.996C17.9593 35.9944 18.0565 35.992 18.1535 35.9888Z" fill="white"/>
</g>
<defs>
<clipPath id="clip0">
<rect y="0.893616" width="35.1064" height="35.1064" fill="white"/>
</clipPath>
</defs>
</svg>
